<?xml version="1.0" standalone="no"?>
<!DOCTYPE svg PUBLIC "-//W3C//DTD SVG 20010904//EN"
 "http://www.w3.org/TR/2001/REC-SVG-20010904/DTD/svg10.dtd">
<svg version="1.0" xmlns="http://www.w3.org/2000/svg"
 viewBox="0 0 2600.000000 2600.000000"
 preserveAspectRatio="xMidYMid meet">
<metadata>
Created by potrace 1.15, written by Peter Selinger 2001-2017
</metadata>
<g transform="translate(0.000000,2600.000000) scale(0.100000,-0.100000)"
fill="#000000" stroke="none">
<path d="M10150 21443 c-41 -2 -158 -10 -260 -18 -2496 -207 -4640 -1872
-5464 -4245 -163 -467 -269 -961 -327 -1520 -17 -166 -23 -782 -10 -976 125
-1808 965 -3419 2371 -4550 889 -716 1948 -1168 3109 -1329 465 -65 1072 -72
1551 -19 914 101 1818 406 2578 868 51 31 96 56 100 56 4 0 979 -971 2167
-2158 1188 -1188 2188 -2180 2223 -2206 485 -366 1133 -393 1637 -68 319 205
540 530 622 912 26 122 26 440 -1 560 -43 197 -126 388 -242 553 -45 63 -558
582 -2226 2251 l-2168 2170 69 115 c403 675 684 1444 811 2219 62 383 83 641
84 1042 0 650 -81 1211 -266 1830 -458 1537 -1488 2844 -2883 3660 -183 107
-559 292 -760 375 -849 351 -1782 515 -2715 478z m475 -1623 c231 -11 403 -28
596 -60 665 -112 1297 -366 1869 -752 579 -391 1090 -942 1441 -1553 84 -147
236 -462 294 -610 543 -1383 415 -2935 -348 -4196 -494 -818 -1238 -1478
-2097 -1863 -466 -208 -902 -327 -1440 -393 -209 -26 -811 -25 -1025 0 -806
97 -1487 347 -2138 785 -491 330 -947 787 -1274 1277 -439 657 -689 1348 -780
2155 -25 222 -25 742 0 970 109 991 485 1863 1122 2605 593 690 1383 1199
2251 1450 363 105 734 168 1094 184 96 4 184 9 195 9 11 1 119 -3 240 -8z"/>
<path d="M10240 18984 c-320 -18 -639 -73 -935 -161 -201 -60 -257 -88 -332
-165 -102 -107 -139 -205 -131 -354 4 -80 10 -103 40 -166 43 -88 90 -144 161
-191 136 -90 279 -100 487 -33 715 231 1493 179 2165 -143 293 -141 519 -297
776 -535 118 -110 175 -146 279 -172 220 -56 466 81 541 303 32 94 32 223 -1
308 -33 87 -65 128 -194 252 -594 572 -1419 949 -2268 1037 -146 16 -471 27
-588 20z"/>
</g>
</svg>
